<?xml version="1.0" encoding="iso-8859-1"?>
<!-- Uploaded to: SVG Repo, www.svgrepo.com, Generator: SVG Repo Mixer Tools -->
<svg height="800px" width="800px" version="1.1" id="Layer_1" xmlns="http://www.w3.org/2000/svg" xmlns:xlink="http://www.w3.org/1999/xlink" 
	 viewBox="0 0 512 512" xml:space="preserve">
<path style="fill:#ECF1F1;" d="M467.862,66.207H44.138c-9.71,0-17.655,8.828-17.655,19.421v307.2h167.724l17.655,17.655h88.276
	l17.655-17.655h167.724v-307.2C485.517,75.034,477.572,66.207,467.862,66.207"/>
<path style="fill:#D1D4D1;" d="M0,392.828h194.207l17.655,17.655h88.276l17.655-17.655H512v31.779
	c0,11.476-9.71,21.186-21.186,21.186H21.186C9.71,445.793,0,436.083,0,424.607V392.828z"/>
<g>
	<path style="fill:#F0C419;" d="M370.759,145.655h-70.621c-5.297,0-8.828-3.531-8.828-8.828s3.531-8.828,8.828-8.828h70.621
		c5.297,0,8.828,3.531,8.828,8.828S376.055,145.655,370.759,145.655"/>
	<path style="fill:#F0C419;" d="M344.276,180.966h-44.138c-5.297,0-8.828-3.531-8.828-8.828s3.531-8.828,8.828-8.828h44.138
		c5.297,0,8.828,3.531,8.828,8.828S349.572,180.966,344.276,180.966"/>
</g>
<g>
	<path style="fill:#E1705C;" d="M450.207,180.966h-70.621c-5.297,0-8.828-3.531-8.828-8.828s3.531-8.828,8.828-8.828h70.621
		c5.297,0,8.828,3.531,8.828,8.828S455.503,180.966,450.207,180.966"/>
	<path style="fill:#E1705C;" d="M450.207,145.655h-44.138c-5.297,0-8.828-3.531-8.828-8.828s3.531-8.828,8.828-8.828h44.138
		c5.297,0,8.828,3.531,8.828,8.828S455.503,145.655,450.207,145.655"/>
</g>
<g>
	<path style="fill:#F0C419;" d="M370.759,216.276h-70.621c-5.297,0-8.828-3.531-8.828-8.828s3.531-8.828,8.828-8.828h70.621
		c5.297,0,8.828,3.531,8.828,8.828S376.055,216.276,370.759,216.276"/>
	<path style="fill:#F0C419;" d="M344.276,251.586h-44.138c-5.297,0-8.828-3.531-8.828-8.828s3.531-8.828,8.828-8.828h44.138
		c5.297,0,8.828,3.531,8.828,8.828S349.572,251.586,344.276,251.586"/>
</g>
<g>
	<path style="fill:#E1705C;" d="M450.207,251.586h-70.621c-5.297,0-8.828-3.531-8.828-8.828s3.531-8.828,8.828-8.828h70.621
		c5.297,0,8.828,3.531,8.828,8.828S455.503,251.586,450.207,251.586"/>
	<path style="fill:#E1705C;" d="M450.207,216.276h-44.138c-5.297,0-8.828-3.531-8.828-8.828s3.531-8.828,8.828-8.828h44.138
		c5.297,0,8.828,3.531,8.828,8.828S455.503,216.276,450.207,216.276"/>
</g>
<g>
	<path style="fill:#F0C419;" d="M370.759,286.897h-70.621c-5.297,0-8.828-3.531-8.828-8.828c0-5.297,3.531-8.828,8.828-8.828h70.621
		c5.297,0,8.828,3.531,8.828,8.828C379.586,283.366,376.055,286.897,370.759,286.897"/>
	<path style="fill:#F0C419;" d="M344.276,322.207h-44.138c-5.297,0-8.828-3.531-8.828-8.828c0-5.297,3.531-8.828,8.828-8.828h44.138
		c5.297,0,8.828,3.531,8.828,8.828C353.103,318.676,349.572,322.207,344.276,322.207"/>
</g>
<g>
	<path style="fill:#E1705C;" d="M450.207,322.207h-70.621c-5.297,0-8.828-3.531-8.828-8.828c0-5.297,3.531-8.828,8.828-8.828h70.621
		c5.297,0,8.828,3.531,8.828,8.828C459.034,318.676,455.503,322.207,450.207,322.207"/>
	<path style="fill:#E1705C;" d="M450.207,286.897h-44.138c-5.297,0-8.828-3.531-8.828-8.828c0-5.297,3.531-8.828,8.828-8.828h44.138
		c5.297,0,8.828,3.531,8.828,8.828C459.034,283.366,455.503,286.897,450.207,286.897"/>
</g>
<polygon style="fill:#F0C419;" points="158.897,136.828 61.793,233.931 88.276,260.414 158.897,189.793 158.897,189.793 
	158.897,189.793 229.517,260.414 256,233.931 "/>
<polygon style="fill:#42C775;" points="158.897,189.793 105.931,242.759 105.931,313.379 211.862,313.379 211.862,242.759 "/>
</svg>